<?xml version="1.0" standalone="no"?>
<!DOCTYPE svg PUBLIC "-//W3C//DTD SVG 20010904//EN"
 "http://www.w3.org/TR/2001/REC-SVG-20010904/DTD/svg10.dtd">
<svg version="1.0" xmlns="http://www.w3.org/2000/svg"
 width="700.000000pt" height="700.000000pt" viewBox="0 0 700.000000 700.000000"
 preserveAspectRatio="xMidYMid meet">
<metadata>
Created by potrace 1.11, written by Peter Selinger 2001-2013
</metadata>
<g transform="translate(0.000000,700.000000) scale(0.100000,-0.100000)"
fill="#000000" stroke="none">
<path d="M3383 6988 c-468 -21 -1007 -170 -1343 -370 -162 -97 -376 -280 -517
-441 -241 -276 -359 -518 -393 -803 -20 -171 -40 -201 -216 -344 -351 -286
-545 -554 -585 -810 -15 -99 0 -150 60 -210 73 -73 140 -85 270 -49 572 155
1167 454 1686 844 149 112 180 128 253 127 87 -1 135 -31 206 -130 357 -497
842 -814 1518 -992 222 -58 625 -120 683 -106 76 19 54 305 -37 476 -70 133
-129 198 -446 499 -274 259 -371 395 -432 604 -26 87 -21 113 26 143 25 17 30
17 93 1 206 -54 563 -292 776 -519 455 -484 705 -1103 705 -1749 0 -1064 -650
-1898 -1637 -2103 -189 -39 -314 -50 -543 -50 -288 -1 -553 32 -825 101 -106
27 -129 38 -613 306 -529 292 -534 294 -562 243 -14 -27 8 -85 101 -266 81
-156 168 -275 294 -401 110 -110 128 -144 108 -195 -4 -12 -51 -70 -103 -129
-111 -124 -186 -227 -274 -374 -83 -138 -116 -205 -116 -234 0 -25 28 -57 50
-57 7 0 265 139 574 309 l561 308 225 -13 c275 -16 686 -18 835 -4 724 67
1405 382 1936 897 507 492 829 1120 941 1835 19 125 22 182 23 458 0 337 -8
424 -61 669 -92 427 -284 858 -535 1200 -46 62 -90 121 -97 131 -11 15 14 62
189 360 111 189 207 361 215 383 26 74 13 142 -42 214 -39 51 -92 72 -232 93
-458 67 -924 47 -1324 -57 l-97 -25 -78 30 c-258 99 -544 166 -818 192 -159
15 -224 16 -402 8z m-837 -1259 c28 -14 54 -60 54 -96 0 -39 -32 -87 -69 -102
-105 -44 -196 77 -129 171 30 43 88 54 144 27z"/>
</g>
</svg>
